<svg id="svg" xmlns="http://www.w3.org/2000/svg" xmlns:xlink="http://www.w3.org/1999/xlink" width="400" height="392.368839427663" viewBox="0, 0, 400,392.368839427663"><g id="svgg"><path id="path0" d="M83.073 18.119 C 41.882 26.670,13.057 79.366,22.197 129.412 C 28.903 166.132,40.708 188.022,73.470 224.483 C 90.606 243.554,95.754 249.449,119.571 277.266 C 159.596 324.014,176.379 342.810,196.229 363.116 C 202.554 369.587,208.977 376.259,210.502 377.943 C 215.280 383.219,217.725 383.593,224.105 380.025 C 232.677 375.232,237.838 368.852,237.838 363.049 C 237.838 355.487,240.245 350.735,249.805 339.423 C 289.029 293.010,331.023 226.307,354.256 173.512 C 385.060 103.511,375.003 48.377,328.885 34.422 C 302.259 26.365,281.029 33.857,244.913 64.054 C 238.049 69.793,230.396 76.180,227.906 78.247 C 213.982 89.808,204.274 108.675,196.514 139.259 C 195.761 142.226,195.024 144.774,194.877 144.921 C 194.009 145.789,191.957 138.545,191.355 132.487 C 186.624 84.898,165.651 48.960,130.160 27.628 C 115.783 18.987,97.082 15.210,83.073 18.119 M109.521 29.920 C 137.507 37.040,162.796 64.160,173.831 98.887 C 180.849 120.971,184.066 151.497,178.613 144.265 C 177.046 142.186,172.337 134.374,172.337 133.852 C 172.337 131.624,158.898 106.933,152.268 96.979 C 127.859 60.337,100.334 41.041,72.449 41.024 L 61.910 41.017 64.500 38.920 C 70.035 34.439,81.886 29.650,90.620 28.367 C 94.470 27.801,104.398 28.617,109.521 29.920 M324.006 43.819 C 361.628 53.877,372.336 99.129,350.280 154.849 C 347.755 161.229,338.257 181.395,337.931 181.069 C 337.836 180.973,338.466 177.896,339.333 174.231 C 355.892 104.170,347.187 60.344,313.831 45.848 C 306.125 42.499,306.164 42.692,313.196 42.659 C 317.484 42.639,321.005 43.017,324.006 43.819 M80.832 50.842 C 114.272 59.270,148.636 100.681,174.656 163.905 C 179.450 175.554,179.860 181.273,176.862 194.649 C 174.649 204.520,174.855 207.254,177.931 208.825 C 179.975 209.870,181.583 209.382,183.736 207.065 C 185.059 205.641,185.805 205.405,189.003 205.405 C 198.397 205.405,199.253 203.890,199.762 186.359 C 200.810 150.297,212.328 125.732,250.981 77.119 C 258.552 67.597,266.599 61.815,277.393 58.144 C 315.923 45.039,336.647 65.830,336.705 117.647 C 336.741 150.638,330.328 174.955,311.295 213.990 C 292.946 251.622,281.566 270.066,239.886 329.730 C 236.709 334.277,233.161 339.359,232.000 341.023 C 228.194 346.479,228.070 346.434,211.430 333.451 C 140.481 278.099,97.838 226.824,67.414 160.281 C 37.262 94.336,43.741 41.493,80.832 50.842 M38.469 92.846 C 42.317 135.277,57.715 173.349,92.736 227.027 C 102.567 242.094,102.559 242.061,94.298 233.704 C 46.147 184.995,23.661 133.065,33.445 93.164 C 34.717 87.976,37.124 80.509,37.309 81.175 C 37.392 81.473,37.914 86.725,38.469 92.846 M174.563 316.627 C 192.226 329.831,213.035 346.809,217.329 351.521 C 220.044 354.500,219.994 356.542,217.067 362.317 L 214.733 366.923 210.864 363.305 C 201.098 354.172,189.605 342.057,178.441 329.128 C 169.892 319.228,158.983 305.973,158.983 305.486 C 158.983 305.084,162.168 307.362,174.563 316.627 " stroke="none" fill="#000000" fill-rule="evenodd"></path></g></svg>